<?xml version="1.0" encoding="UTF-8" standalone="no"?>
<!-- Created with Inkscape (http://www.inkscape.org/) -->

<svg
   xmlns:dc="http://purl.org/dc/elements/1.1/"
   xmlns:cc="http://creativecommons.org/ns#"
   xmlns:rdf="http://www.w3.org/1999/02/22-rdf-syntax-ns#"
   xmlns:svg="http://www.w3.org/2000/svg"
   xmlns="http://www.w3.org/2000/svg"
   xmlns:sodipodi="http://sodipodi.sourceforge.net/DTD/sodipodi-0.dtd"
   xmlns:inkscape="http://www.inkscape.org/namespaces/inkscape"
   width="133.69524mm"
   height="79.545822mm"
   viewBox="0 0 473.72329 281.85528"
   id="svg2"
   version="1.1"
   inkscape:version="0.91 r13725"
   sodipodi:docname="MOPs.svg"
   inkscape:export-filename="/apps/da_standard.jspp/docs/MOPs.png"
   inkscape:export-xdpi="90"
   inkscape:export-ydpi="90">
  <defs
     id="defs4" />
  <sodipodi:namedview
     id="base"
     pagecolor="#ffffff"
     bordercolor="#666666"
     borderopacity="1.0"
     inkscape:pageopacity="0.0"
     inkscape:pageshadow="2"
     inkscape:zoom="1.4"
     inkscape:cx="361.64096"
     inkscape:cy="-13.046543"
     inkscape:document-units="px"
     inkscape:current-layer="layer1"
     showgrid="false"
     inkscape:window-width="1890"
     inkscape:window-height="995"
     inkscape:window-x="15"
     inkscape:window-y="15"
     inkscape:window-maximized="1"
     fit-margin-top="10"
     fit-margin-left="10"
     fit-margin-right="10"
     fit-margin-bottom="10" />
  <metadata
     id="metadata7">
    <rdf:RDF>
      <cc:Work
         rdf:about="">
        <dc:format>image/svg+xml</dc:format>
        <dc:type
           rdf:resource="http://purl.org/dc/dcmitype/StillImage" />
        <dc:title />
      </cc:Work>
    </rdf:RDF>
  </metadata>
  <g
     inkscape:label="Layer 1"
     inkscape:groupmode="layer"
     id="layer1"
     transform="translate(22.575927,3.5650896)">
    <rect
       style="fill:none;fill-opacity:1;fill-rule:evenodd;stroke:#000000;stroke-width:0.26517427px;stroke-linecap:butt;stroke-linejoin:miter;stroke-opacity:1"
       id="rect3336"
       width="13.259815"
       height="143.80992"
       x="32.07766"
       y="32.000568" />
    <rect
       style="fill:#b6da00;fill-opacity:1;stroke:none;stroke-opacity:1"
       id="rect4154"
       width="55.795967"
       height="14.497886"
       x="12.857143"
       y="42.847134" />
    <rect
       y="67.103157"
       x="12.857143"
       height="14.497886"
       width="55.795967"
       id="rect4156"
       style="fill:#b6da00;fill-opacity:1;stroke:none;stroke-opacity:1" />
    <rect
       style="fill:#b6da00;fill-opacity:1;stroke:none;stroke-opacity:1"
       id="rect4158"
       width="55.795967"
       height="14.497886"
       x="12.857143"
       y="91.359283" />
    <rect
       y="115.61537"
       x="12.857143"
       height="14.497886"
       width="55.795967"
       id="rect4160"
       style="fill:#b6da00;fill-opacity:1;stroke:none;stroke-opacity:1" />
    <rect
       style="fill:#b6da00;fill-opacity:1;stroke:none;stroke-opacity:1"
       id="rect4162"
       width="55.795967"
       height="14.497886"
       x="12.857143"
       y="139.87143" />
    <rect
       y="132.91086"
       x="122.66624"
       height="109.83025"
       width="13.291585"
       id="rect4164"
       style="fill:none;fill-opacity:1;fill-rule:evenodd;stroke:#000000;stroke-width:0.23201583px;stroke-linecap:butt;stroke-linejoin:miter;stroke-opacity:1" />
    <rect
       y="143.77473"
       x="103.46161"
       height="14.497886"
       width="55.795967"
       id="rect4166"
       style="fill:#00c3ff;fill-opacity:1;stroke:none;stroke-opacity:1" />
    <rect
       style="fill:#00c3ff;fill-opacity:1;stroke:none;stroke-opacity:1"
       id="rect4168"
       width="55.795967"
       height="14.497886"
       x="103.46161"
       y="168.03075" />
    <rect
       y="192.28687"
       x="103.46161"
       height="14.497886"
       width="55.795967"
       id="rect4170"
       style="fill:#00c3ff;fill-opacity:1;stroke:none;stroke-opacity:1" />
    <rect
       style="fill:#00c3ff;fill-opacity:1;stroke:none;stroke-opacity:1"
       id="rect4172"
       width="55.795967"
       height="14.497886"
       x="103.46161"
       y="216.54295" />
    <rect
       style="fill:none;fill-opacity:1;fill-rule:evenodd;stroke:#000000;stroke-width:0.17302491px;stroke-linecap:butt;stroke-linejoin:miter;stroke-opacity:1"
       id="rect4176"
       width="13.348105"
       height="60.822056"
       x="165.12482"
       y="41.989479" />
    <rect
       style="fill:#ffce00;fill-opacity:1;stroke:none;stroke-opacity:1"
       id="rect4178"
       width="55.795967"
       height="14.497886"
       x="145.94844"
       y="52.884144" />
    <rect
       y="77.14016"
       x="145.94844"
       height="14.497886"
       width="55.795967"
       id="rect4180"
       style="fill:#ffce00;fill-opacity:1;stroke:none;stroke-opacity:1" />
    <rect
       y="73.821388"
       x="292.11758"
       height="143.80992"
       width="13.259815"
       id="rect4188"
       style="fill:none;fill-opacity:1;fill-rule:evenodd;stroke:#000000;stroke-width:0.26517427px;stroke-linecap:butt;stroke-linejoin:miter;stroke-opacity:1" />
    <rect
       y="84.667969"
       x="272.89709"
       height="14.497886"
       width="55.795967"
       id="rect4190"
       style="fill:#00c6da;fill-opacity:1;stroke:none;stroke-opacity:1" />
    <rect
       style="fill:#00c6da;fill-opacity:1;stroke:none;stroke-opacity:1"
       id="rect4192"
       width="55.795967"
       height="14.497886"
       x="272.89709"
       y="108.92398" />
    <rect
       y="133.1801"
       x="272.89709"
       height="14.497886"
       width="55.795967"
       id="rect4194"
       style="fill:#00c6da;fill-opacity:1;stroke:none;stroke-opacity:1" />
    <rect
       style="fill:#00c6da;fill-opacity:1;stroke:none;stroke-opacity:1"
       id="rect4196"
       width="55.795967"
       height="14.497886"
       x="272.89709"
       y="157.43619" />
    <rect
       y="181.69225"
       x="272.89709"
       height="14.497886"
       width="55.795967"
       id="rect4198"
       style="fill:#00c6da;fill-opacity:1;stroke:none;stroke-opacity:1" />
    <rect
       style="fill:none;fill-opacity:1;fill-rule:evenodd;stroke:#000000;stroke-width:0.20798945px;stroke-linecap:butt;stroke-linejoin:miter;stroke-opacity:1"
       id="rect4200"
       width="13.314606"
       height="88.108498"
       x="208.14026"
       y="142.9353" />
    <rect
       style="fill:#f6ea00;fill-opacity:1;stroke:none;stroke-opacity:1"
       id="rect4202"
       width="55.795967"
       height="14.497886"
       x="188.94716"
       y="153.81172" />
    <rect
       y="178.06775"
       x="188.94716"
       height="14.497886"
       width="55.795967"
       id="rect4204"
       style="fill:#f6ea00;fill-opacity:1;stroke:none;stroke-opacity:1" />
    <rect
       style="fill:#f6ea00;fill-opacity:1;stroke:none;stroke-opacity:1"
       id="rect4206"
       width="55.795967"
       height="14.497886"
       x="188.94716"
       y="202.32385" />
    <rect
       y="34.788616"
       x="379.13882"
       height="143.80992"
       width="13.259815"
       id="rect4212"
       style="fill:none;fill-opacity:1;fill-rule:evenodd;stroke:#000000;stroke-width:0.26517427px;stroke-linecap:butt;stroke-linejoin:miter;stroke-opacity:1" />
    <rect
       y="45.635193"
       x="359.9183"
       height="14.497886"
       width="55.795967"
       id="rect4214"
       style="fill:#da4400;fill-opacity:1;stroke:none;stroke-opacity:1" />
    <rect
       style="fill:#da4400;fill-opacity:1;stroke:none;stroke-opacity:1"
       id="rect4216"
       width="55.795967"
       height="14.497886"
       x="359.9183"
       y="69.891212" />
    <rect
       y="94.147324"
       x="359.9183"
       height="14.497886"
       width="55.795967"
       id="rect4218"
       style="fill:#da4400;fill-opacity:1;stroke:none;stroke-opacity:1" />
    <rect
       style="fill:#da4400;fill-opacity:1;stroke:none;stroke-opacity:1"
       id="rect4220"
       width="55.795967"
       height="14.497886"
       x="359.9183"
       y="118.40341" />
    <rect
       y="142.65948"
       x="359.9183"
       height="14.497886"
       width="55.795967"
       id="rect4222"
       style="fill:#da4400;fill-opacity:1;stroke:none;stroke-opacity:1" />
    <path
       style="fill:#9eda00;fill-opacity:1;stroke:none;stroke-opacity:1"
       id="path4226"
       d="m 83.242119,91.379394 c 4.418284,-1.156954 8.862941,-2.185702 13.140584,-3.877663 2.693977,-1.363118 4.001207,-2.072078 -4.127004,2.70024 -0.251643,0.147747 0.470478,-0.357368 0.680147,-0.569043 0.515382,-0.520323 0.801023,-1.174801 1.079167,-1.859209 0.413369,-1.748598 1.201406,-3.238138 2.270856,-4.59877 3.233018,-2.93756 7.057551,-5.055418 10.887011,-6.947846 1.02984,-0.569766 0.58,-0.300937 1.5647,-0.923772 0.25755,-0.162904 1.03028,-0.651431 0.77182,-0.490266 -10.498042,6.54587 -6.29909,3.979609 -4.03321,2.428198 0.33516,-0.218237 0.66633,-0.443919 1.00548,-0.654711 2.50635,-1.557774 4.99923,-3.142248 7.53081,-4.65084 1.32465,-0.789369 3.04346,-1.296161 4.4594,-1.960103 1.54777,-0.923038 3.11141,-1.812636 4.66593,-2.721228 1.18876,-0.618866 2.35531,-1.305123 3.58844,-1.806662 0.23126,-0.104716 0.45394,-0.235644 0.6938,-0.314146 0.83431,-0.273057 1.74988,-0.37521 2.60196,-0.512115 1.72976,-0.277923 3.45952,-0.546883 5.193,-0.795834 0,0 -5.93119,4.823247 -5.93119,4.823247 l 0,0 c -2.86238,0.401162 -5.83661,0.664809 -8.51161,1.915511 -1.17587,0.596337 -2.3688,1.151729 -3.50824,1.83138 -1.56133,0.883163 -3.07875,1.86255 -4.68781,2.640495 -1.07403,0.459422 -2.15913,0.887359 -3.21475,1.396491 -0.39259,0.189345 -1.53256,0.838696 -1.16762,0.592323 1.78257,-1.203431 7.75709,-4.905437 4.27622,-2.745245 -3.62522,2.534509 -7.32847,4.961137 -11.18746,7.04686 -2.46078,1.257264 -6.118374,3.723739 4.10084,-2.7805 0.49029,-0.312058 -0.98243,0.621779 -1.45786,0.960014 -0.23026,0.163802 -0.45679,0.333724 -0.68518,0.500586 -1.13166,1.20506 -2.03224,2.577579 -2.37153,4.292106 -1.365284,4.76753 -6.305623,6.33429 -10.301473,8.136518 -4.366435,1.570125 -8.88285,2.524398 -13.289417,3.946292 0,0 5.964189,-5.002308 5.964189,-5.002308 z"
       inkscape:connector-curvature="0" />
    <path
       style="fill:#9eda00;fill-opacity:1;stroke:none;stroke-opacity:1"
       id="path4228"
       d="m 221.21046,69.575763 c 5.3812,3.259365 11.21862,5.452063 16.87837,8.043557 2.3821,1.104174 4.78639,2.154809 7.16325,3.272341 1.0206,0.479858 1.90285,0.845199 2.75826,1.627041 0.32259,0.294848 0.57047,0.674925 0.8557,1.012388 1.38435,2.458902 1.3212,5.403994 1.35456,8.193198 -0.12547,2.557115 -0.26991,5.119132 -0.51903,7.666153 -0.32319,2.228609 -0.40248,4.483479 -0.58697,6.726869 -0.20892,2.06906 -0.35754,4.14355 -0.43652,6.22313 0.007,1.30834 -0.059,2.59735 -0.25105,3.88817 -0.19503,1.09897 -0.20985,2.21979 -0.32195,3.32864 -0.23938,1.3242 -0.31165,2.67287 -0.55128,3.99609 -0.25258,1.05649 -0.31672,2.14485 -0.44651,3.22207 -0.13748,1.10635 -0.54317,2.07388 -1.06655,3.01923 -0.56373,1.04939 -1.25329,2.00883 -1.86809,3.02096 -0.46764,0.91355 -0.9428,1.82027 -1.43724,2.71715 -0.54219,1.13629 -1.27315,2.13041 -2.08405,3.04931 -0.13063,0.1519 -0.26126,0.3038 -0.39189,0.4557 0,0 -6.99332,3.18808 -6.99332,3.18808 l 0,0 c 0.12998,-0.1535 0.25996,-0.307 0.38994,-0.4605 0.76699,-0.90577 1.6242,-1.7312 2.14421,-2.85424 0.44206,-0.93608 1.01538,-1.7845 1.43221,-2.73485 0.51735,-1.08512 1.29626,-1.98249 1.87564,-3.03007 0.47862,-0.89332 1.04549,-1.69065 1.15935,-2.75553 0.26681,-1.05232 0.1483,-2.19235 0.45828,-3.245 0.28257,-1.30418 0.36958,-2.62296 0.56459,-3.94526 0.20004,-1.0984 0.10908,-2.23857 0.31985,-3.34036 0.19721,-1.27114 0.36366,-2.52421 0.3262,-3.82082 0.10014,-2.09928 0.26051,-4.19367 0.47096,-6.28333 0.19538,-2.24585 0.23492,-4.50821 0.56066,-6.74084 0.32502,-2.51512 0.42654,-5.066212 0.61185,-7.596784 -0.0113,-2.580238 0.10656,-5.348934 -1.10696,-7.658159 -0.24486,-0.288648 -0.45795,-0.613635 -0.73458,-0.865942 -0.75514,-0.688757 -1.69664,-1.13907 -2.57422,-1.586901 -2.31393,-1.180822 -4.66535,-2.277118 -7.01399,-3.372225 -5.72285,-2.651168 -11.55577,-5.017093 -17.199,-7.873001 0,0 6.25932,-4.486265 6.25932,-4.486265 z"
       inkscape:connector-curvature="0" />
    <path
       style="fill:#9eda00;fill-opacity:1;stroke:none;stroke-opacity:1"
       id="path4234"
       d="m 246.01368,214.15273 c 0.37685,-4.01989 1.18633,-7.96018 2.02729,-11.88845 1.41703,-7.08688 2.58543,-14.23863 3.47369,-21.42746 0.86168,-4.89576 1.2666,-9.848 1.62943,-14.80927 0.27657,-4.26225 0.49469,-8.52779 0.75941,-12.79107 0.24809,-2.50547 0.54384,-5.00234 0.69266,-7.51797 0.17635,-1.93134 0.3824,-3.85845 0.50248,-5.79531 0.0276,-1.63368 0.25866,-3.24856 0.40401,-4.87202 0.25428,-1.88061 0.48605,-3.76443 0.75713,-5.64234 0.36025,-2.3948 0.6019,-4.80535 0.88259,-7.21154 0.26596,-1.80016 0.46147,-3.60748 0.55988,-5.42737 0.0388,-1.68171 0.2888,-3.34476 0.41959,-5.01946 0.044,-1.51585 0.18434,-3.0158 0.36262,-4.51865 0.1908,-1.4489 0.18101,-2.91598 0.31045,-4.36977 0.12914,-1.70289 0.52656,-2.59912 1.52741,-3.910509 1.64487,-1.806444 3.62892,-3.186893 5.57104,-4.578919 0.24568,-0.180768 0.49136,-0.361544 0.73703,-0.542313 0,0 7.00273,-3.000254 7.00273,-3.000254 l 0,0 c -0.25055,0.193548 -0.50109,0.387104 -0.75164,0.580652 -1.95167,1.322484 -3.87308,2.721926 -5.62168,4.350772 -1.05572,1.249462 -1.50349,1.710626 -1.66704,3.449529 -0.22737,1.441542 -0.13005,2.927622 -0.34196,4.375592 -0.15274,1.49743 -0.34764,2.98125 -0.37084,4.49108 -0.12987,1.66936 -0.36318,3.32827 -0.44105,4.99948 -0.0711,1.85263 -0.25032,3.69314 -0.57362,5.51548 -0.33366,2.3945 -0.51032,4.81537 -0.85358,7.20922 -0.25833,1.8638 -0.47204,3.73241 -0.76105,5.59129 -0.13743,1.61548 -0.35323,3.22181 -0.39346,4.84439 -0.13308,1.94412 -0.35151,3.87858 -0.55395,5.81526 -0.13972,2.53892 -0.42846,5.05808 -0.76784,7.57417 -0.35429,4.27903 -0.59379,8.56379 -0.86381,12.8497 -0.37722,4.98658 -0.68893,9.98364 -1.6718,14.88658 -1.00581,7.1962 -2.2807,14.34552 -3.49022,21.50286 -0.74455,3.83564 -1.50355,7.69243 -1.70049,11.61754 0,0 -6.79541,3.66908 -6.79541,3.66908 z"
       inkscape:connector-curvature="0" />
    <path
       style="fill:#9eda00;fill-opacity:1;stroke:none;stroke-opacity:1"
       id="path4236"
       d="m 332.98765,191.95854 c 0.23194,-2.65623 0.39244,-5.31779 0.62406,-7.97411 0.26104,-3.30701 1.03682,-6.52009 1.79064,-9.72416 1.31169,-4.63957 2.42498,-9.33161 3.45694,-14.05387 1.32333,-6.80453 2.2556,-13.69148 3.20292,-20.56777 0.84011,-6.25272 1.07781,-12.5715 1.55729,-18.86339 0.28988,-4.46467 0.71431,-8.91699 1.00248,-13.38178 0.14651,-2.4633 0.3801,-4.92193 0.61811,-7.37692 0.2676,-2.397788 0.43513,-4.805205 0.52412,-7.218078 0.0492,-2.362224 0.0497,-4.720373 0.21031,-7.077523 0.15872,-2.738981 0.32449,-5.474325 0.55267,-8.207647 0.17726,-1.607364 0.16857,-3.231061 0.31324,-4.840103 0.24839,-1.359748 0.34122,-2.740141 0.49065,-4.114093 0.12819,-1.608973 0.47383,-3.177478 0.74199,-4.761309 0.19597,-1.281643 0.2441,-2.580991 0.26999,-3.877513 0.0687,-1.000881 0.29634,-1.97516 0.40518,-2.971628 0.0534,-1.169668 0.26421,-2.146568 0.85882,-3.127323 2.43177,-2.524047 6.12961,-4.144416 8.76772,-5.762596 0,0 -5.87529,5.104484 -5.87529,5.104484 l 0,0 c 10.23622,-6.559148 6.24449,-4.126608 4.07052,-2.568959 -0.79534,0.816071 -0.93372,1.502492 -1.01611,2.671064 -0.077,0.98658 -0.22165,1.957835 -0.44543,2.918359 -0.0221,1.335399 -0.0659,2.672795 -0.23993,3.996785 -0.22343,1.587535 -0.66538,3.128317 -0.77567,4.7366 -0.15528,1.368972 -0.15606,2.758434 -0.45261,4.106729 -0.25979,1.598121 -0.15369,3.253528 -0.40658,4.857671 -0.26869,2.72669 -0.46631,5.452139 -0.56815,8.192823 -0.15666,2.346526 -0.17944,4.689002 -0.20247,7.04139 -0.0824,2.435786 -0.25343,4.863866 -0.53227,7.283062 -0.23629,2.453725 -0.41566,4.915005 -0.6441,7.369285 -0.37943,4.50697 -0.95854,8.99251 -1.23404,13.51019 -0.49133,6.30893 -0.71864,12.64556 -1.54922,18.91774 -0.97584,6.89333 -1.97446,13.78572 -3.20081,20.63222 -0.95701,4.67643 -1.88163,9.36227 -3.19368,13.93988 -0.76006,3.16632 -1.58277,6.33503 -1.84812,9.60779 -0.20546,2.60703 -0.37322,5.21359 -0.50569,7.82652 0,0 -6.76748,3.75618 -6.76748,3.75618 z"
       inkscape:connector-curvature="0" />
    <path
       style="fill:#9eda00;fill-opacity:1;stroke:none;stroke-opacity:1"
       id="path4238"
       d="m 77.898825,123.15888 c 1.65343,0.79164 3.329721,1.55683 4.859472,2.61119 0.907582,0.69851 1.512359,1.59062 1.991873,2.66426 0.418994,1.04459 0.513491,2.1789 0.572715,3.3031 -0.07814,1.43691 0.219501,2.68088 0.810597,3.95514 0.746881,1.36522 1.810899,2.45745 2.661894,3.74522 0.692925,1.00804 0.892475,2.20809 1.130315,3.40365 0.164026,1.13383 0.445409,2.12181 1.113954,3.01485 0.775905,0.6996 1.588237,1.44679 2.556045,1.78744 1.136786,0.29782 2.30719,0.35189 3.47042,0.39596 0,0 -6.131877,4.80552 -6.131877,4.80552 l 0,0 c -1.225994,-0.0781 -2.464128,-0.1704 -3.635693,-0.60647 -1.0283,-0.52175 -1.967643,-1.26983 -2.770372,-2.14347 -0.719706,-0.99781 -1.119558,-2.07542 -1.285949,-3.33438 -0.240929,-1.08191 -0.322397,-2.20601 -0.968625,-3.12783 -0.86502,-1.32073 -1.93715,-2.45991 -2.682368,-3.87164 -0.648521,-1.34964 -1.125263,-2.68272 -1.016461,-4.2336 -0.03655,-1.01673 -0.0792,-2.05207 -0.433313,-3.00784 -0.409735,-0.93349 -0.940776,-1.69802 -1.736597,-2.29059 -1.48351,-1.00037 -3.081091,-1.83561 -4.756186,-2.37434 0,0 6.250156,-4.69617 6.250156,-4.69617 z"
       inkscape:connector-curvature="0" />
  </g>
</svg>
